<svg width="1881" height="1420" xmlns="http://www.w3.org/2000/svg" xmlns:xlink="http://www.w3.org/1999/xlink" xml:space="preserve" overflow="hidden"><defs><filter id="fx0" x="-10%" y="-10%" width="120%" height="120%" filterUnits="userSpaceOnUse" primitiveUnits="userSpaceOnUse"><feComponentTransfer color-interpolation-filters="sRGB"><feFuncR type="discrete" tableValues="0 0"/><feFuncG type="discrete" tableValues="0 0"/><feFuncB type="discrete" tableValues="0 0"/><feFuncA type="linear" slope="0.4" intercept="0"/></feComponentTransfer><feGaussianBlur stdDeviation="6.11111 6.11111"/></filter><filter id="fx1" x="-10%" y="-10%" width="120%" height="120%" filterUnits="userSpaceOnUse" primitiveUnits="userSpaceOnUse"><feComponentTransfer color-interpolation-filters="sRGB"><feFuncR type="discrete" tableValues="0 0"/><feFuncG type="discrete" tableValues="0 0"/><feFuncB type="discrete" tableValues="0 0"/><feFuncA type="linear" slope="0.4" intercept="0"/></feComponentTransfer><feGaussianBlur stdDeviation="6.11111 6.11111"/></filter><clipPath id="clip2"><rect x="1193" y="424" width="1881" height="1420"/></clipPath><clipPath id="clip3"><path d="M1205.5 436.5 1205.5 1811.5 3041.5 1811.5 3041.5 436.5ZM1193 424 3074 424 3074 1844 1193 1844Z" fill-rule="evenodd" clip-rule="evenodd"/></clipPath><clipPath id="clip4"><rect x="39" y="73" width="770" height="702"/></clipPath></defs><g clip-path="url(#clip2)" transform="translate(-1193 -424)"><g clip-path="url(#clip3)"><g filter="url(#fx0)" transform="translate(1192 423)"><g><rect x="23.2228" y="23.2228" width="1836" height="1375" stroke="#042433" stroke-width="7" stroke-miterlimit="8" fill="#1A3772"/></g></g></g><rect x="1205.5" y="436.5" width="1836" height="1375" stroke="#042433" stroke-width="6.875" stroke-miterlimit="8" fill="#1A3772"/><g clip-path="url(#clip4)" filter="url(#fx1)" transform="translate(1708 709)"><g><g><g><g><path d="M698.625 329.062C691.875 329.062 685.969 329.906 679.219 331.594L660.656 275.062C712.125 248.062 732.375 184.781 705.375 133.312 678.375 81.8437 615.094 61.5937 563.625 88.5937 535.781 102.937 515.531 129.937 508.781 160.312L434.531 153.562C433.687 114.75 402.469 84.375 363.656 85.2187 324.844 86.0625 294.469 117.281 295.312 156.094 295.312 170.437 300.375 183.937 307.969 195.75L215.156 287.719C171.281 249.75 104.625 253.969 66.6562 297.844 28.6875 341.719 32.0625 408.375 75.9375 446.344 95.3437 463.219 119.812 472.5 145.125 472.5 147.656 472.5 150.187 472.5 152.719 472.5L175.5 594C138.375 604.969 118.125 643.781 129.094 680.906 140.062 718.031 178.875 738.281 216 727.312 253.125 716.344 273.375 677.531 262.406 640.406 260.719 636.187 259.031 631.969 257.344 627.75L332.437 589.781 332.437 589.781C373.781 646.312 453.094 658.125 508.781 616.781 551.812 584.719 570.375 529.875 555.187 478.406L637.031 433.687C656.437 466.594 698.625 478.406 732.375 459 765.281 439.594 777.094 397.406 757.687 363.656 745.875 342.562 723.094 329.062 698.625 329.062ZM560.25 253.969C562.781 226.125 588.094 205.031 615.937 207.562 640.406 210.094 659.812 229.5 662.344 253.969 631.969 275.062 591.469 275.062 560.25 253.969ZM588.094 167.062C588.094 154.406 598.219 143.437 611.719 143.437 625.219 143.437 635.344 153.562 635.344 167.062 635.344 179.719 625.219 190.687 611.719 190.687 599.062 190.687 588.094 179.719 588.094 167.062L588.094 167.062ZM611.719 92.8125C660.656 92.8125 700.312 132.469 700.312 181.406 700.312 203.344 691.875 224.437 677.531 241.312 672.469 221.906 658.125 205.031 639.562 196.594 655.594 181.406 656.437 156.094 641.25 139.219 626.062 123.187 600.75 122.344 583.875 137.531 567 152.719 567 178.031 582.187 194.906 583.031 195.75 583.875 196.594 583.875 196.594 565.312 205.031 550.969 221.062 545.906 241.312 513 205.031 515.531 149.344 551.812 116.437 568.687 101.25 589.781 92.8125 611.719 92.8125ZM555.187 270.844 486.844 399.937C426.937 372.094 356.906 394.875 324.844 452.25L243 407.531C258.187 371.25 251.437 329.906 226.969 299.531L319.781 206.719C348.469 232.031 392.344 228.656 417.656 199.125 425.25 190.687 430.312 180.562 432.844 169.594L507.094 176.344C507.094 178.031 507.094 179.719 507.094 181.406 506.25 217.687 524.812 251.437 555.187 270.844ZM353.531 145.125C353.531 138.375 358.594 133.312 365.344 133.312 372.094 133.312 377.156 138.375 377.156 145.125 377.156 151.875 372.094 156.937 365.344 156.937 365.344 156.937 365.344 156.937 365.344 156.937 358.594 156.094 353.531 151.031 353.531 145.125ZM365.344 172.969C379.687 172.969 391.5 183.094 394.031 197.437 376.312 209.25 354.375 209.25 336.656 197.437 338.344 183.937 350.156 173.812 365.344 172.969ZM365.344 101.25C394.031 101.25 417.656 124.875 418.5 153.562 418.5 164.531 415.125 175.5 408.375 184.781 404.156 175.5 397.406 167.062 388.125 162 392.344 156.937 394.031 151.031 394.031 144.281 394.031 128.25 381.375 115.594 365.344 115.594 349.312 115.594 336.656 128.25 336.656 144.281 336.656 151.031 339.187 156.937 342.562 162 333.281 167.062 326.531 174.656 322.312 184.781 305.437 161.156 310.5 128.25 333.281 111.375 342.562 104.625 353.531 101.25 365.344 101.25ZM57.375 367.031C57.375 318.094 97.0312 278.437 145.969 278.437 194.906 278.437 234.562 318.094 234.562 367.031 234.562 388.969 226.125 410.062 211.781 426.937 206.719 407.531 192.375 390.656 173.812 382.219 189.844 367.031 190.687 341.719 175.5 324.844 160.312 307.969 135 307.969 118.125 323.156 102.094 338.344 101.25 363.656 116.437 380.531 117.281 381.375 118.125 382.219 118.125 382.219 99.5625 390.656 85.2187 406.687 80.1562 426.937 64.9687 410.062 57.375 388.969 57.375 367.031ZM122.344 352.687C122.344 340.031 132.469 329.062 145.969 329.062 159.469 329.062 169.594 339.187 169.594 352.687 169.594 365.344 159.469 376.312 145.969 376.312 132.469 376.312 122.344 365.344 122.344 352.687ZM94.5 439.594C97.0312 411.75 122.344 390.656 150.187 393.187 174.656 395.719 194.062 415.125 196.594 439.594 166.219 460.687 124.875 460.687 94.5 439.594ZM167.062 704.531C169.594 688.5 183.937 677.531 199.969 680.062 212.625 681.75 222.75 691.875 224.437 704.531 207.562 715.5 184.781 715.5 167.062 704.531ZM184.781 651.375C184.781 644.625 189.844 639.562 196.594 639.562 203.344 639.562 208.406 644.625 208.406 651.375 208.406 658.125 203.344 663.187 196.594 663.187 189.844 662.344 184.781 657.281 184.781 651.375L184.781 651.375ZM238.781 691.031C234.562 681.75 227.812 673.312 218.531 668.25 222.75 663.187 224.437 657.281 224.437 650.531 224.437 634.5 211.781 621.844 195.75 621.844 179.719 621.844 167.062 634.5 167.062 650.531 167.062 657.281 169.594 663.187 172.969 668.25 163.687 673.312 156.937 680.906 152.719 691.031 135.844 667.406 140.906 634.5 164.531 617.625 188.156 600.75 221.062 605.812 237.937 629.437 252.281 647.156 252.281 672.469 238.781 691.031L238.781 691.031ZM247.219 613.406C234.562 599.062 216 590.625 196.594 590.625 195.75 590.625 194.062 590.625 193.219 590.625L170.437 469.125C197.437 462.375 221.062 445.5 235.406 421.875L317.25 466.594C302.906 502.031 305.437 541.687 323.156 574.594L247.219 613.406ZM370.406 603.281C372.937 567.844 404.156 541.687 439.594 544.219 470.812 546.75 496.125 572.062 498.656 603.281 460.687 631.125 408.375 631.125 370.406 603.281ZM404.156 496.969C404.156 480.094 417.656 466.594 434.531 466.594 451.406 466.594 464.906 480.094 464.906 496.969 464.906 513.844 451.406 527.344 434.531 527.344 434.531 527.344 434.531 527.344 434.531 527.344 417.656 527.344 404.156 513.844 404.156 496.969ZM513.844 590.625C507.937 564.469 489.375 543.375 464.906 533.25 485.156 516.375 487.687 486.844 470.812 466.594 453.937 446.344 424.406 443.812 404.156 460.687 383.906 477.562 381.375 507.094 398.25 527.344 399.937 529.875 402.469 531.562 404.156 533.25 379.687 543.375 361.125 564.469 355.219 590.625 313.031 546.75 314.719 477.562 358.594 435.375 402.469 393.187 471.656 394.875 513.844 438.75 554.344 480.937 554.344 548.437 513.844 590.625ZM549.281 462.375C539.156 439.594 522.281 421.031 502.031 407.531L570.375 278.437C594 288.562 620.156 289.406 644.625 281.812L663.187 338.344C635.344 354.375 621.844 387.281 631.125 417.656L549.281 462.375ZM669.094 442.969C671.625 426.937 685.969 415.969 702 418.5 714.656 420.187 724.781 430.312 726.469 442.969 709.594 453.937 686.812 453.937 669.094 442.969ZM686.812 389.812C686.812 383.062 691.875 378 698.625 378 705.375 378 710.437 383.062 710.437 389.812 710.437 396.562 705.375 401.625 698.625 401.625 698.625 401.625 698.625 401.625 698.625 401.625 691.875 400.781 686.812 395.719 686.812 389.812L686.812 389.812ZM740.812 429.469C736.594 420.187 729.844 411.75 720.562 406.687 724.781 401.625 726.469 395.719 726.469 388.969 726.469 372.937 713.812 360.281 697.781 360.281 681.75 360.281 669.094 372.937 669.094 388.969 669.094 395.719 671.625 401.625 675 406.687 665.719 411.75 658.969 419.344 654.75 429.469 637.875 405.844 642.937 372.937 666.562 356.062 690.187 339.187 723.094 344.25 739.969 367.875 754.312 385.594 754.312 410.906 740.812 429.469 740.812 429.469 740.812 429.469 740.812 429.469Z" fill="#FFFFFF" transform="matrix(1.00123 0 0 1 19.7228 19.7228)"/></g></g></g></g></g><g><g><g><path d="M698.625 329.062C691.875 329.062 685.969 329.906 679.219 331.594L660.656 275.062C712.125 248.062 732.375 184.781 705.375 133.312 678.375 81.8437 615.094 61.5937 563.625 88.5937 535.781 102.937 515.531 129.937 508.781 160.312L434.531 153.562C433.687 114.75 402.469 84.375 363.656 85.2187 324.844 86.0625 294.469 117.281 295.312 156.094 295.312 170.437 300.375 183.937 307.969 195.75L215.156 287.719C171.281 249.75 104.625 253.969 66.6562 297.844 28.6875 341.719 32.0625 408.375 75.9375 446.344 95.3437 463.219 119.812 472.5 145.125 472.5 147.656 472.5 150.187 472.5 152.719 472.5L175.5 594C138.375 604.969 118.125 643.781 129.094 680.906 140.062 718.031 178.875 738.281 216 727.312 253.125 716.344 273.375 677.531 262.406 640.406 260.719 636.187 259.031 631.969 257.344 627.75L332.437 589.781 332.437 589.781C373.781 646.312 453.094 658.125 508.781 616.781 551.812 584.719 570.375 529.875 555.187 478.406L637.031 433.687C656.437 466.594 698.625 478.406 732.375 459 765.281 439.594 777.094 397.406 757.687 363.656 745.875 342.562 723.094 329.062 698.625 329.062ZM560.25 253.969C562.781 226.125 588.094 205.031 615.937 207.562 640.406 210.094 659.812 229.5 662.344 253.969 631.969 275.062 591.469 275.062 560.25 253.969ZM588.094 167.062C588.094 154.406 598.219 143.437 611.719 143.437 625.219 143.437 635.344 153.562 635.344 167.062 635.344 179.719 625.219 190.687 611.719 190.687 599.062 190.687 588.094 179.719 588.094 167.062L588.094 167.062ZM611.719 92.8125C660.656 92.8125 700.312 132.469 700.312 181.406 700.312 203.344 691.875 224.437 677.531 241.312 672.469 221.906 658.125 205.031 639.562 196.594 655.594 181.406 656.437 156.094 641.25 139.219 626.062 123.187 600.75 122.344 583.875 137.531 567 152.719 567 178.031 582.187 194.906 583.031 195.75 583.875 196.594 583.875 196.594 565.312 205.031 550.969 221.062 545.906 241.312 513 205.031 515.531 149.344 551.812 116.437 568.687 101.25 589.781 92.8125 611.719 92.8125ZM555.187 270.844 486.844 399.937C426.937 372.094 356.906 394.875 324.844 452.25L243 407.531C258.187 371.25 251.437 329.906 226.969 299.531L319.781 206.719C348.469 232.031 392.344 228.656 417.656 199.125 425.25 190.687 430.312 180.562 432.844 169.594L507.094 176.344C507.094 178.031 507.094 179.719 507.094 181.406 506.25 217.687 524.812 251.437 555.187 270.844ZM353.531 145.125C353.531 138.375 358.594 133.312 365.344 133.312 372.094 133.312 377.156 138.375 377.156 145.125 377.156 151.875 372.094 156.937 365.344 156.937 365.344 156.937 365.344 156.937 365.344 156.937 358.594 156.094 353.531 151.031 353.531 145.125ZM365.344 172.969C379.687 172.969 391.5 183.094 394.031 197.437 376.312 209.25 354.375 209.25 336.656 197.437 338.344 183.937 350.156 173.812 365.344 172.969ZM365.344 101.25C394.031 101.25 417.656 124.875 418.5 153.562 418.5 164.531 415.125 175.5 408.375 184.781 404.156 175.5 397.406 167.062 388.125 162 392.344 156.937 394.031 151.031 394.031 144.281 394.031 128.25 381.375 115.594 365.344 115.594 349.312 115.594 336.656 128.25 336.656 144.281 336.656 151.031 339.187 156.937 342.562 162 333.281 167.062 326.531 174.656 322.312 184.781 305.437 161.156 310.5 128.25 333.281 111.375 342.562 104.625 353.531 101.25 365.344 101.25ZM57.375 367.031C57.375 318.094 97.0312 278.437 145.969 278.437 194.906 278.437 234.562 318.094 234.562 367.031 234.562 388.969 226.125 410.062 211.781 426.937 206.719 407.531 192.375 390.656 173.812 382.219 189.844 367.031 190.687 341.719 175.5 324.844 160.312 307.969 135 307.969 118.125 323.156 102.094 338.344 101.25 363.656 116.437 380.531 117.281 381.375 118.125 382.219 118.125 382.219 99.5625 390.656 85.2187 406.687 80.1562 426.937 64.9687 410.062 57.375 388.969 57.375 367.031ZM122.344 352.687C122.344 340.031 132.469 329.062 145.969 329.062 159.469 329.062 169.594 339.187 169.594 352.687 169.594 365.344 159.469 376.312 145.969 376.312 132.469 376.312 122.344 365.344 122.344 352.687ZM94.5 439.594C97.0312 411.75 122.344 390.656 150.187 393.187 174.656 395.719 194.062 415.125 196.594 439.594 166.219 460.687 124.875 460.687 94.5 439.594ZM167.062 704.531C169.594 688.5 183.937 677.531 199.969 680.062 212.625 681.75 222.75 691.875 224.437 704.531 207.562 715.5 184.781 715.5 167.062 704.531ZM184.781 651.375C184.781 644.625 189.844 639.562 196.594 639.562 203.344 639.562 208.406 644.625 208.406 651.375 208.406 658.125 203.344 663.187 196.594 663.187 189.844 662.344 184.781 657.281 184.781 651.375L184.781 651.375ZM238.781 691.031C234.562 681.75 227.812 673.312 218.531 668.25 222.75 663.187 224.437 657.281 224.437 650.531 224.437 634.5 211.781 621.844 195.75 621.844 179.719 621.844 167.062 634.5 167.062 650.531 167.062 657.281 169.594 663.187 172.969 668.25 163.687 673.312 156.937 680.906 152.719 691.031 135.844 667.406 140.906 634.5 164.531 617.625 188.156 600.75 221.062 605.812 237.937 629.437 252.281 647.156 252.281 672.469 238.781 691.031L238.781 691.031ZM247.219 613.406C234.562 599.062 216 590.625 196.594 590.625 195.75 590.625 194.062 590.625 193.219 590.625L170.437 469.125C197.437 462.375 221.062 445.5 235.406 421.875L317.25 466.594C302.906 502.031 305.437 541.687 323.156 574.594L247.219 613.406ZM370.406 603.281C372.937 567.844 404.156 541.687 439.594 544.219 470.812 546.75 496.125 572.062 498.656 603.281 460.687 631.125 408.375 631.125 370.406 603.281ZM404.156 496.969C404.156 480.094 417.656 466.594 434.531 466.594 451.406 466.594 464.906 480.094 464.906 496.969 464.906 513.844 451.406 527.344 434.531 527.344 434.531 527.344 434.531 527.344 434.531 527.344 417.656 527.344 404.156 513.844 404.156 496.969ZM513.844 590.625C507.937 564.469 489.375 543.375 464.906 533.25 485.156 516.375 487.687 486.844 470.812 466.594 453.937 446.344 424.406 443.812 404.156 460.687 383.906 477.562 381.375 507.094 398.25 527.344 399.937 529.875 402.469 531.562 404.156 533.25 379.687 543.375 361.125 564.469 355.219 590.625 313.031 546.75 314.719 477.562 358.594 435.375 402.469 393.187 471.656 394.875 513.844 438.75 554.344 480.937 554.344 548.437 513.844 590.625ZM549.281 462.375C539.156 439.594 522.281 421.031 502.031 407.531L570.375 278.437C594 288.562 620.156 289.406 644.625 281.812L663.187 338.344C635.344 354.375 621.844 387.281 631.125 417.656L549.281 462.375ZM669.094 442.969C671.625 426.937 685.969 415.969 702 418.5 714.656 420.187 724.781 430.312 726.469 442.969 709.594 453.937 686.812 453.937 669.094 442.969ZM686.812 389.812C686.812 383.062 691.875 378 698.625 378 705.375 378 710.437 383.062 710.437 389.812 710.437 396.562 705.375 401.625 698.625 401.625 698.625 401.625 698.625 401.625 698.625 401.625 691.875 400.781 686.812 395.719 686.812 389.812L686.812 389.812ZM740.812 429.469C736.594 420.187 729.844 411.75 720.562 406.687 724.781 401.625 726.469 395.719 726.469 388.969 726.469 372.937 713.812 360.281 697.781 360.281 681.75 360.281 669.094 372.937 669.094 388.969 669.094 395.719 671.625 401.625 675 406.687 665.719 411.75 658.969 419.344 654.75 429.469 637.875 405.844 642.937 372.937 666.562 356.062 690.187 339.187 723.094 344.25 739.969 367.875 754.312 385.594 754.312 410.906 740.812 429.469 740.812 429.469 740.812 429.469 740.812 429.469Z" fill="#FFFFFF" transform="matrix(1.00123 0 0 1 1718 719)"/></g></g></g></g></svg>