<svg width="96" height="96" xmlns="http://www.w3.org/2000/svg" xmlns:xlink="http://www.w3.org/1999/xlink">
 <g transform="translate(-762 -312)">
  <path d="M826.3 381.1C824.8 379.6 823.9 377.5 823.9 375.4L823.3 374.8C814.2 380.4 802.6 379.8 794.1 373.3L793.8 373.5C792.7 374.3 792 375.6 792 377L792 386 828 386 828 382.8 826.3 381.1Z" fill="#084F6A" /><path d="M835.5 351.5C840.4 350.7 843.7 346 842.9 341.1 842.1 336.2 837.4 332.9 832.5 333.7 831.1 333.9 829.8 334.5 828.7 335.3 832.8 339.7 835.2 345.4 835.5 351.5Z" fill="#084F6A" /><path d="M850.2 359.4C847.6 357.4 844.6 355.9 841.4 355.2 839.5 354.6 837.5 354.3 835.5 354.1 835.3 358.4 834 362.6 831.7 366.3L832.3 366.9C834.4 366.9 836.5 367.8 838 369.3L840.7 372 852 372 852 363C852 361.6 851.4 360.2 850.2 359.4Z" fill="#084F6A" /><path d="M845.4 380.9 836 371.4C834.7 370.2 833 369.6 831.2 370L827.8 366.7C830.9 362.7 832.5 357.9 832.5 352.9 832.6 340.3 822.4 330 809.7 329.9 797 329.8 786.9 340 786.9 352.6 786.9 365.2 797 375.5 809.7 375.6 814.7 375.6 819.6 374 823.7 370.9L827.1 374.2C826.8 375.9 827.3 377.7 828.5 379L838 388.5C840 390.6 843.4 390.7 845.5 388.7 847.6 386.7 847.7 383.3 845.7 381.2 845.6 381.1 845.5 381 845.4 380.9L845.4 380.9ZM809.8 334.6C819.9 334.6 828 342.7 828 352.8 828 357.1 826.5 361.3 823.7 364.5 821.8 363.6 819.9 362.9 817.9 362.4 815.2 361.6 812.4 361.1 809.6 361.1 806.8 361.1 804 361.6 801.3 362.4 799.4 362.9 797.6 363.6 795.9 364.6 789.4 357 790.3 345.5 797.9 339 801.2 336.1 805.4 334.6 809.8 334.6Z" fill="#084F6A" /><path d="M819.7 348.8C819.7 354.378 815.178 358.9 809.6 358.9 804.022 358.9 799.5 354.378 799.5 348.8 799.5 343.222 804.022 338.7 809.6 338.7 815.178 338.7 819.7 343.222 819.7 348.8Z" fill="#084F6A" /><path d="M784 354.1C782.2 354.3 780.4 354.6 778.6 355.2 775.5 356.1 772.5 357.6 769.8 359.4 768.6 360.2 768 361.6 768 363L768 372 789.6 372C790 371.4 790.5 370.9 791.1 370.5 786.8 366 784.3 360.2 784 354.1Z" fill="#084F6A" /><path d="M784 351.4C784.3 345.3 786.8 339.6 791 335.1 786.9 332.3 781.3 333.4 778.5 337.6 775.7 341.8 776.8 347.3 781 350.1 781.9 350.7 782.9 351.1 784 351.4Z" fill="#084F6A" />
 </g>
</svg>