<svg width="1881" height="1420" xmlns="http://www.w3.org/2000/svg" xmlns:xlink="http://www.w3.org/1999/xlink" xml:space="preserve" overflow="hidden"><defs><filter id="fx0" x="-10%" y="-10%" width="120%" height="120%" filterUnits="userSpaceOnUse" primitiveUnits="userSpaceOnUse"><feComponentTransfer color-interpolation-filters="sRGB"><feFuncR type="discrete" tableValues="0 0"/><feFuncG type="discrete" tableValues="0 0"/><feFuncB type="discrete" tableValues="0 0"/><feFuncA type="linear" slope="0.4" intercept="0"/></feComponentTransfer><feGaussianBlur stdDeviation="6.11111 6.11111"/></filter><filter id="fx1" x="-10%" y="-10%" width="120%" height="120%" filterUnits="userSpaceOnUse" primitiveUnits="userSpaceOnUse"><feComponentTransfer color-interpolation-filters="sRGB"><feFuncR type="discrete" tableValues="0 0"/><feFuncG type="discrete" tableValues="0 0"/><feFuncB type="discrete" tableValues="0 0"/><feFuncA type="linear" slope="0.4" intercept="0"/></feComponentTransfer><feGaussianBlur stdDeviation="6.11111 6.11111"/></filter><clipPath id="clip2"><rect x="1193" y="424" width="1881" height="1420"/></clipPath><clipPath id="clip3"><path d="M1205.5 436.5 1205.5 1811.5 3041.5 1811.5 3041.5 436.5ZM1193 424 3074 424 3074 1844 1193 1844Z" fill-rule="evenodd" clip-rule="evenodd"/></clipPath><clipPath id="clip4"><rect x="59" y="46" width="530" height="533"/></clipPath></defs><g clip-path="url(#clip2)" transform="translate(-1193 -424)"><g clip-path="url(#clip3)"><g filter="url(#fx0)" transform="translate(1192 423)"><g><rect x="23.2228" y="23.2228" width="1836" height="1375" stroke="#042433" stroke-width="7" stroke-miterlimit="8" fill="#1A3772"/></g></g></g><rect x="1205.5" y="436.5" width="1836" height="1375" stroke="#042433" stroke-width="6.875" stroke-miterlimit="8" fill="#1A3772"/><g clip-path="url(#clip4)" filter="url(#fx1)" transform="translate(1815 815)"><g><g><g><g><path d="M489.86 212.504C553.566 312.616 524.053 445.417 423.941 509.122 323.83 572.828 191.029 543.315 127.323 443.203 63.6171 343.092 93.13 210.291 193.242 146.585 263.621 101.8 353.562 101.8 423.941 146.585L423.941 131.996C315.792 68.3101 176.492 104.355 112.806 212.504 49.1201 320.653 85.1644 459.954 193.314 523.639 301.463 587.326 440.763 551.281 504.449 443.131 546.356 371.966 546.356 283.669 504.449 212.504Z" fill="#FFFFFF"/><path d="M393.065 208.194C327.02 161.581 235.691 177.334 189.079 243.38 142.465 309.426 158.218 400.754 224.264 447.367 290.31 493.98 381.638 478.228 428.251 412.181 463.963 361.581 463.963 293.981 428.251 243.38L419.321 252.304C460.988 313.4 445.238 396.707 384.141 438.374 323.045 480.041 239.739 464.291 198.071 403.195 156.405 342.098 172.155 258.792 233.251 217.125 278.76 186.088 338.633 186.088 384.141 217.125Z" fill="#FFFFFF"/><path d="M308.895 274.692C314.106 274.693 319.289 275.466 324.274 276.986L333.981 267.285C300.663 253.396 262.394 269.146 248.506 302.464 234.617 335.783 250.367 374.051 283.685 387.94 317.003 401.828 355.272 386.078 369.16 352.76 375.869 336.666 375.869 318.559 369.16 302.464L359.459 312.172C367.953 340.102 352.196 369.63 324.265 378.124 296.335 386.617 266.807 370.86 258.314 342.93 249.82 315 265.577 285.472 293.508 276.978 298.496 275.461 303.681 274.691 308.895 274.692Z" fill="#FFFFFF"/><path d="M566.5 129.278C565.537 126.955 563.269 125.441 560.754 125.441L511.004 125.441 511.004 75.6915C511.003 72.2569 508.219 69.4733 504.784 69.474 503.135 69.4744 501.555 70.1293 500.389 71.2948L444.42 127.264C443.254 128.43 442.598 130.011 442.598 131.66L442.598 185.054 304.498 323.154C302.027 325.54 301.959 329.477 304.345 331.948 306.731 334.418 310.668 334.487 313.138 332.101 313.19 332.05 313.241 331.999 313.291 331.948L451.391 193.848 504.785 193.848C506.434 193.847 508.016 193.192 509.182 192.026L565.151 136.057C566.93 134.278 567.463 131.603 566.5 129.278ZM455.035 134.235 498.461 90.8093C498.517 90.7533 498.566 90.7719 498.566 90.8528L498.566 129.086 455.035 172.617ZM502.211 181.41 463.829 181.41 507.36 137.879 545.593 137.879C545.674 137.879 545.692 137.929 545.636 137.985Z" fill="#FFFFFF"/></g></g></g></g></g><g><g><g><path d="M2295.14 1017.78C2358.84 1117.89 2329.33 1250.69 2229.22 1314.4 2129.11 1378.11 1996.31 1348.59 1932.6 1248.48 1868.89 1148.37 1898.41 1015.57 1998.52 951.863 2068.9 907.077 2158.84 907.077 2229.22 951.863L2229.22 937.273C2121.07 873.587 1981.77 909.632 1918.08 1017.78 1854.4 1125.93 1890.44 1265.23 1998.59 1328.92 2106.74 1392.6 2246.04 1356.56 2309.73 1248.41 2351.63 1177.24 2351.63 1088.95 2309.73 1017.78Z" fill="#FFFFFF"/><path d="M2198.34 1013.47C2132.3 966.858 2040.97 982.612 1994.36 1048.66 1947.74 1114.7 1963.5 1206.03 2029.54 1252.64 2095.59 1299.26 2186.92 1283.5 2233.53 1217.46 2269.24 1166.86 2269.24 1099.26 2233.53 1048.66L2224.6 1057.58C2266.27 1118.68 2250.51 1201.98 2189.42 1243.65 2128.32 1285.32 2045.02 1269.57 2003.35 1208.47 1961.68 1147.38 1977.43 1064.07 2038.53 1022.4 2084.04 991.365 2143.91 991.365 2189.42 1022.4Z" fill="#FFFFFF"/><path d="M2114.17 1079.97C2119.38 1079.97 2124.57 1080.74 2129.55 1082.26L2139.26 1072.56C2105.94 1058.67 2067.67 1074.42 2053.78 1107.74 2039.89 1141.06 2055.64 1179.33 2088.96 1193.22 2122.28 1207.11 2160.55 1191.36 2174.44 1158.04 2181.15 1141.94 2181.15 1123.84 2174.44 1107.74L2164.74 1117.45C2173.23 1145.38 2157.47 1174.91 2129.54 1183.4 2101.61 1191.89 2072.08 1176.14 2063.59 1148.21 2055.1 1120.28 2070.85 1090.75 2098.78 1082.26 2103.77 1080.74 2108.96 1079.97 2114.17 1079.97Z" fill="#FFFFFF"/><path d="M2371.78 934.556C2370.81 932.232 2368.55 930.718 2366.03 930.719L2316.28 930.719 2316.28 880.969C2316.28 877.534 2313.5 874.751 2310.06 874.751 2308.41 874.752 2306.83 875.407 2305.67 876.572L2249.7 932.541C2248.53 933.707 2247.88 935.288 2247.88 936.938L2247.88 990.332 2109.78 1128.43C2107.3 1130.82 2107.24 1134.75 2109.62 1137.22 2112.01 1139.7 2115.95 1139.76 2118.42 1137.38 2118.47 1137.33 2118.52 1137.28 2118.57 1137.22L2256.67 999.125 2310.06 999.125C2311.71 999.124 2313.29 998.47 2314.46 997.303L2370.43 941.334C2372.21 939.556 2372.74 936.88 2371.78 934.556ZM2260.31 939.512 2303.74 896.087C2303.79 896.031 2303.84 896.049 2303.84 896.13L2303.84 934.363 2260.31 977.894ZM2307.49 986.688 2269.11 986.688 2312.64 943.156 2350.87 943.156C2350.95 943.156 2350.97 943.206 2350.91 943.262Z" fill="#FFFFFF"/></g></g></g></g></svg>