<svg width="1881" height="1420" xmlns="http://www.w3.org/2000/svg" xmlns:xlink="http://www.w3.org/1999/xlink" xml:space="preserve" overflow="hidden"><defs><filter id="fx0" x="-10%" y="-10%" width="120%" height="120%" filterUnits="userSpaceOnUse" primitiveUnits="userSpaceOnUse"><feComponentTransfer color-interpolation-filters="sRGB"><feFuncR type="discrete" tableValues="0 0"/><feFuncG type="discrete" tableValues="0 0"/><feFuncB type="discrete" tableValues="0 0"/><feFuncA type="linear" slope="0.4" intercept="0"/></feComponentTransfer><feGaussianBlur stdDeviation="6.11111 6.11111"/></filter><clipPath id="clip1"><rect x="1193" y="424" width="1881" height="1420"/></clipPath><clipPath id="clip2"><path d="M1205.5 436.5 1205.5 1811.5 3041.5 1811.5 3041.5 436.5ZM1193 424 3074 424 3074 1844 1193 1844Z" fill-rule="evenodd" clip-rule="evenodd"/></clipPath></defs><g clip-path="url(#clip1)" transform="translate(-1193 -424)"><g clip-path="url(#clip2)"><g filter="url(#fx0)" transform="translate(1192 423)"><g><rect x="23.2228" y="23.2228" width="1836" height="1375" stroke="#042433" stroke-width="7" stroke-miterlimit="8" fill="#1A3772"/></g></g></g><rect x="1205.5" y="436.5" width="1836" height="1375" stroke="#042433" stroke-width="6.875" stroke-miterlimit="8" fill="#1A3772"/><g><g><g><path d="M497.292 243.221C497.292 278.483 469.262 306.512 434 306.512 398.737 306.512 370.708 278.483 370.708 243.221 370.708 207.958 398.737 179.929 434 179.929 469.262 179.929 497.292 208.862 497.292 243.221" fill="#FFFFFF" transform="matrix(1.00115 0 0 1 1689 690)"/><path d="M750.458 279.387C750.458 314.65 722.429 342.679 687.167 342.679 651.904 342.679 623.875 314.65 623.875 279.387 623.875 244.125 651.904 216.096 687.167 216.096 722.429 216.096 750.458 244.125 750.458 279.387" fill="#FFFFFF" transform="matrix(1.00115 0 0 1 1689 690)"/><path d="M244.125 279.387C244.125 314.65 216.096 342.679 180.833 342.679 145.571 342.679 117.542 314.65 117.542 279.387 117.542 244.125 145.571 216.096 180.833 216.096 216.096 216.096 244.125 244.125 244.125 279.387" fill="#FFFFFF" transform="matrix(1.00115 0 0 1 1689 690)"/><path d="M77.7583 688.071C77.7583 556.062 236.892 449.371 434 449.371 630.204 449.371 790.242 556.062 790.242 688.071L77.7583 688.071Z" fill="#FFFFFF" transform="matrix(1.00115 0 0 1 1689 690)"/><path d="M159.133 482.825C197.108 457.508 241.412 437.617 289.333 424.958L289.333 415.012C289.333 405.067 284.812 395.121 278.483 388.792 275.771 386.079 269.442 382.462 261.304 378.846 211.575 355.337 152.804 355.337 102.171 377.942 93.1292 381.558 85.8958 386.079 82.2792 388.792 76.8542 395.121 72.3333 405.067 72.3333 415.012L72.3333 568.721C93.1292 537.075 122.062 507.237 159.133 482.825" fill="#FFFFFF" transform="matrix(1.00115 0 0 1 1689 690)"/><path d="M542.5 415.917 542.5 378.846C542.5 368.9 537.979 358.954 531.65 352.625 528.937 349.912 522.608 346.296 514.471 342.679 464.742 319.171 405.971 319.171 355.337 341.775 346.296 345.392 339.062 349.912 335.446 352.625 328.212 358.954 324.596 368.9 324.596 378.846L324.596 415.917C359.858 408.683 396.025 405.067 433.096 405.067 470.167 405.067 507.237 409.587 542.5 415.917" fill="#FFFFFF" transform="matrix(1.00115 0 0 1 1689 690)"/><path d="M795.667 568.721 795.667 415.012C795.667 405.067 791.146 395.121 784.817 388.792 782.104 386.079 775.775 382.462 767.637 378.846 717.908 355.337 659.137 355.337 608.504 377.942 599.462 381.558 592.229 386.079 588.612 388.792 581.379 395.121 577.762 405.067 577.762 415.012L577.762 424.958C625.683 437.617 669.987 457.508 707.962 482.825 745.937 507.237 774.871 537.075 795.667 568.721" fill="#FFFFFF" transform="matrix(1.00115 0 0 1 1689 690)"/></g></g></g></g></svg>