<svg width="1881" height="1420" xmlns="http://www.w3.org/2000/svg" xmlns:xlink="http://www.w3.org/1999/xlink" xml:space="preserve" overflow="hidden"><defs><filter id="fx0" x="-10%" y="-10%" width="120%" height="120%" filterUnits="userSpaceOnUse" primitiveUnits="userSpaceOnUse"><feComponentTransfer color-interpolation-filters="sRGB"><feFuncR type="discrete" tableValues="0 0"/><feFuncG type="discrete" tableValues="0 0"/><feFuncB type="discrete" tableValues="0 0"/><feFuncA type="linear" slope="0.4" intercept="0"/></feComponentTransfer><feGaussianBlur stdDeviation="6.11111 6.11111"/></filter><filter id="fx1" x="-10%" y="-10%" width="120%" height="120%" filterUnits="userSpaceOnUse" primitiveUnits="userSpaceOnUse"><feComponentTransfer color-interpolation-filters="sRGB"><feFuncR type="discrete" tableValues="0 0"/><feFuncG type="discrete" tableValues="0 0"/><feFuncB type="discrete" tableValues="0 0"/><feFuncA type="linear" slope="0.4" intercept="0"/></feComponentTransfer><feGaussianBlur stdDeviation="6.11111 6.11111"/></filter><clipPath id="clip2"><rect x="1193" y="424" width="1881" height="1420"/></clipPath><clipPath id="clip3"><path d="M1205.5 436.5 1205.5 1811.5 3041.5 1811.5 3041.5 436.5ZM1193 424 3074 424 3074 1844 1193 1844Z" fill-rule="evenodd" clip-rule="evenodd"/></clipPath><clipPath id="clip4"><rect x="90" y="90" width="506" height="506"/></clipPath></defs><g clip-path="url(#clip2)" transform="translate(-1193 -424)"><g clip-path="url(#clip3)"><g filter="url(#fx0)" transform="translate(1192 423)"><g><rect x="23.2228" y="23.2228" width="1836" height="1375" stroke="#042433" stroke-width="7" stroke-miterlimit="8" fill="#1A3772"/></g></g></g><rect x="1205.5" y="436.5" width="1836" height="1375" stroke="#042433" stroke-width="6.875" stroke-miterlimit="8" fill="#1A3772"/><g clip-path="url(#clip4)" filter="url(#fx1)" transform="translate(1790 791)"><g><g><g><g><path d="M134.583 94.2083 94.2083 94.2083 94.2083 551.792 551.792 551.792 551.792 511.417 134.583 511.417Z" fill="#FFFFFF" transform="matrix(1 0 0 1 19.7225 19.7227)"/><path d="M444.125 208.604 483.827 248.306 430.667 301.467 390.292 261.092 323 328.383 282.625 288.008 160.827 409.806 189.09 438.069 282.625 344.533 323 384.908 390.292 317.617 430.667 357.992 512.089 276.569 551.792 316.271 551.792 208.604Z" fill="#FFFFFF" transform="matrix(1 0 0 1 19.7225 19.7227)"/></g></g></g></g></g><g><g><g><path d="M134.583 94.2083 94.2083 94.2083 94.2083 551.792 551.792 551.792 551.792 511.417 134.583 511.417Z" fill="#FFFFFF" transform="matrix(1 0 0 1 1800 801)"/><path d="M444.125 208.604 483.827 248.306 430.667 301.467 390.292 261.092 323 328.383 282.625 288.008 160.827 409.806 189.09 438.069 282.625 344.533 323 384.908 390.292 317.617 430.667 357.992 512.089 276.569 551.792 316.271 551.792 208.604Z" fill="#FFFFFF" transform="matrix(1 0 0 1 1800 801)"/></g></g></g></g></svg>