<svg width="825" height="825" xmlns="http://www.w3.org/2000/svg" xmlns:xlink="http://www.w3.org/1999/xlink">
 <g transform="translate(-2687 -696)">
  <path d="M2733 846.001C2733 774.756 2790.76 717 2862 717L3377.99 717C3449.24 717 3506.99 774.756 3506.99 846.001L3506.99 1372C3506.99 1443.24 3449.24 1501 3377.99 1501L2862 1501C2790.76 1501 2733 1443.24 2733 1372Z" fill="#1A3772" /><path d="M3075.61 1321.71C2967.81 1303.96 2888.81 1210.62 2889.12 1101.37 2889.29 1087.84 2890.67 1074.35 2893.25 1061.06L2893.94 1061.06 2909.66 1088.3C2914.41 1096.54 2924.93 1099.37 2933.17 1094.62 2941.4 1089.87 2944.23 1079.35 2939.48 1071.12L2902.96 1007.95C2900.69 1004.02 2896.95 1001.15 2892.56 999.961 2888.15 998.776 2883.45 999.395 2879.5 1001.68L2815.91 1038.38C2807.5 1042.78 2804.24 1053.16 2808.64 1061.57 2813.04 1069.98 2823.43 1073.23 2831.84 1068.83 2832.27 1068.61 2832.69 1068.37 2833.09 1068.11L2859.39 1052.9C2856.33 1068.87 2854.78 1085.1 2854.75 1101.37 2854.36 1227.31 2945.34 1334.97 3069.59 1355.57L3072.52 1355.57C3082.01 1356.33 3090.32 1349.25 3091.08 1339.76 3091.84 1330.27 3084.76 1321.96 3075.27 1321.2Z" stroke="#FFFFFF" stroke-width="25.7813" fill="#FFFFFF" /><path d="M3370.38 1101.37C3370.41 1070.66 3364.97 1040.19 3354.3 1011.39 3350.98 1002.49 3341.07 997.971 3332.18 1001.29 3323.28 1004.62 3318.76 1014.52 3322.08 1023.42 3365.11 1139.08 3306.24 1267.72 3190.58 1310.75 3189.76 1311.06 3188.93 1311.36 3188.1 1311.66L3188.1 1311.66 3203.74 1284.33C3208.49 1276.07 3205.64 1265.53 3197.38 1260.78 3189.12 1256.04 3178.58 1258.88 3173.84 1267.14L3137.74 1330.48C3133.02 1338.71 3135.87 1349.21 3144.1 1353.94 3144.1 1353.94 3144.1 1353.94 3144.1 1353.94L3207.44 1390.12C3215.7 1394.86 3226.24 1392.02 3230.98 1383.76 3235.73 1375.5 3232.88 1364.96 3224.62 1360.21L3197.81 1345C3301.5 1309.03 3370.85 1211.12 3370.38 1101.37Z" stroke="#FFFFFF" stroke-width="25.7813" fill="#FFFFFF" /><path d="M3224.28 929.234C3214.79 929.234 3207.09 936.929 3207.09 946.422 3207.09 955.915 3214.79 963.609 3224.28 963.609L3294.92 963.609C3295.58 963.652 3296.24 963.652 3296.9 963.609 3300.21 963.61 3303.44 962.623 3306.18 960.774L3307.38 960 3307.9 959.57 3307.9 959.57 3309.02 958.711C3312.38 955.504 3314.3 951.07 3314.34 946.422L3314.34 873.547C3314.34 864.054 3306.65 856.359 3297.16 856.359 3287.66 856.359 3279.97 864.054 3279.97 873.547L3279.97 904.914 3279.97 904.914C3171.59 812.565 3008.87 825.557 2916.52 933.933 2916.13 934.398 2915.73 934.867 2915.34 935.336 2909.21 942.598 2910.14 953.448 2917.4 959.57 2924.66 965.693 2935.51 964.77 2941.63 957.508 3020.56 863.502 3160.54 850.763 3255.13 928.977Z" stroke="#FFFFFF" stroke-width="25.7813" fill="#FFFFFF" />
  <g>
   <g>
    <g>
     <path d="M172 80.6251C172 104.373 152.748 123.625 129 123.625 105.252 123.625 86.0001 104.373 86.0001 80.6251 86.0001 56.8768 105.252 37.625 129 37.625 152.748 37.625 172 56.8768 172 80.6251Z" fill="#FFFFFF" transform="matrix(1.00388 0 0 1 2991 965)" /><path d="M215 220.375 215 177.375C215 170.925 211.775 164.475 206.4 160.175 194.575 150.5 179.525 144.05 164.475 139.75 153.725 136.525 141.9 134.375 129 134.375 117.175 134.375 105.35 136.525 93.5251 139.75 78.4751 144.05 63.425 151.575 51.6 160.175 46.225 164.475 43 170.925 43 177.375L43 220.375 215 220.375Z" fill="#FFFFFF" transform="matrix(1.00388 0 0 1 2991 965)" />
    </g>
   </g>
  </g>
 </g>
</svg>