<svg width="1881" height="1420" xmlns="http://www.w3.org/2000/svg" xmlns:xlink="http://www.w3.org/1999/xlink" xml:space="preserve" overflow="hidden"><defs><filter id="fx0" x="-10%" y="-10%" width="120%" height="120%" filterUnits="userSpaceOnUse" primitiveUnits="userSpaceOnUse"><feComponentTransfer color-interpolation-filters="sRGB"><feFuncR type="discrete" tableValues="0 0"/><feFuncG type="discrete" tableValues="0 0"/><feFuncB type="discrete" tableValues="0 0"/><feFuncA type="linear" slope="0.4" intercept="0"/></feComponentTransfer><feGaussianBlur stdDeviation="6.11111 6.11111"/></filter><filter id="fx1" x="-10%" y="-10%" width="120%" height="120%" filterUnits="userSpaceOnUse" primitiveUnits="userSpaceOnUse"><feComponentTransfer color-interpolation-filters="sRGB"><feFuncR type="discrete" tableValues="0 0"/><feFuncG type="discrete" tableValues="0 0"/><feFuncB type="discrete" tableValues="0 0"/><feFuncA type="linear" slope="0.4" intercept="0"/></feComponentTransfer><feGaussianBlur stdDeviation="6.11111 6.11111"/></filter><clipPath id="clip2"><rect x="1367" y="460" width="1881" height="1420"/></clipPath><clipPath id="clip3"><path d="M1379.5 472.5 1379.5 1847.5 3215.5 1847.5 3215.5 472.5ZM1367 460 3248 460 3248 1880 1367 1880Z" fill-rule="evenodd" clip-rule="evenodd"/></clipPath><clipPath id="clip4"><rect x="59" y="66" width="768" height="754"/></clipPath></defs><g clip-path="url(#clip2)" transform="translate(-1367 -460)"><g clip-path="url(#clip3)"><g filter="url(#fx0)" transform="translate(1366 459)"><g><rect x="23.2227" y="23.2229" width="1836" height="1375" stroke="#042433" stroke-width="7" stroke-miterlimit="8" fill="#1A3772"/></g></g></g><rect x="1379.5" y="472.5" width="1836" height="1375" stroke="#042433" stroke-width="6.875" stroke-miterlimit="8" fill="#1A3772"/><g clip-path="url(#clip4)" filter="url(#fx1)" transform="translate(1864 726)"><g><g><g><g><path d="M652.125 444.448 652.125 353.49C651.946 350.149 650.048 347.139 647.111 345.537L564 305.832 564 153.634 423 69.0336 282 153.634 282 305.832 198.892 345.538C195.956 347.139 194.059 350.148 193.879 353.488L193.879 444.448 61.6919 523.76 61.6919 692.366 202.692 776.966 330.726 700.15 417.661 756.461C420.508 758.31 424.164 758.357 427.058 756.581L517.18 701.291 643.312 776.963 784.312 692.363 784.312 523.759ZM758.246 528.826 643.312 597.787 528.381 528.826C528.339 528.81 528.318 528.763 528.334 528.721 528.342 528.7 528.359 528.682 528.381 528.674L634.5 465.001 634.5 499.826C634.5 504.693 638.445 508.638 643.312 508.638 648.18 508.638 652.125 504.693 652.125 499.826L652.125 465.001 758.245 528.674C758.287 528.69 758.308 528.738 758.292 528.779 758.283 528.801 758.266 528.818 758.244 528.826ZM515.918 282.861C511.527 280.763 506.266 282.621 504.167 287.013 502.068 291.405 503.928 296.666 508.319 298.764L542.025 314.871 431.946 380.919C431.872 380.963 431.812 380.928 431.812 380.843L431.812 242.927 546.242 174.272C546.315 174.228 546.375 174.262 546.375 174.347L546.375 297.414ZM537.932 158.701 423 227.662 308.068 158.701C308.027 158.685 308.006 158.638 308.022 158.596 308.029 158.575 308.046 158.557 308.068 158.549L423 89.5879 537.932 158.549C537.973 158.565 537.994 158.612 537.978 158.654 537.971 158.675 537.954 158.693 537.932 158.701ZM299.758 174.269 414.188 242.924 414.188 380.84C414.188 380.928 414.128 380.96 414.054 380.916L303.975 314.871 337.681 298.767C342.072 296.668 343.932 291.407 341.833 287.015 339.734 282.624 334.473 280.765 330.082 282.864L299.625 297.411 299.625 174.345C299.625 174.259 299.685 174.223 299.758 174.269ZM202.688 508.638C207.555 508.638 211.5 504.693 211.5 499.826L211.5 465.001 317.618 528.674C317.661 528.69 317.681 528.737 317.665 528.779 317.657 528.8 317.64 528.818 317.618 528.826L202.688 597.787 87.7558 528.826C87.7139 528.81 87.6928 528.763 87.7088 528.721 87.717 528.7 87.7341 528.682 87.7558 528.674L193.875 465.001 193.875 499.826C193.875 504.693 197.82 508.638 202.688 508.638ZM79.4456 544.394 193.875 613.049 193.875 750.965C193.875 751.053 193.815 751.085 193.742 751.041L79.3125 682.384 79.3125 544.468C79.3125 544.384 79.3724 544.348 79.4456 544.394ZM211.5 750.968 211.5 613.052 325.929 544.397C326.003 544.353 326.062 544.387 326.062 544.472L326.062 676.138 304.415 662.117C300.413 659.346 294.924 660.344 292.153 664.346 289.382 668.348 290.381 673.837 294.382 676.608 294.531 676.71 294.681 676.808 294.835 676.901L314.246 689.475 211.633 751.044C211.56 751.089 211.5 751.053 211.5 750.968ZM422.574 738.65 343.688 687.551 343.688 523.759 211.5 444.451 211.5 359.049 284.897 323.982 423 406.838 561.099 323.982 634.5 359.049 634.5 444.451 502.312 523.759 502.312 689.724ZM553.888 668.428C551.344 664.278 545.919 662.976 541.77 665.518 541.769 665.519 541.768 665.519 541.767 665.52L519.938 678.909 519.938 544.47C519.938 544.382 519.997 544.35 520.071 544.394L634.5 613.049 634.5 750.965C634.5 751.053 634.44 751.085 634.367 751.041L534.115 690.89 550.983 680.542C555.128 677.998 556.428 672.575 553.888 668.428ZM652.125 750.968 652.125 613.052 766.554 544.397C766.628 544.353 766.688 544.387 766.688 544.472L766.688 682.388 652.258 751.044C652.185 751.089 652.125 751.053 652.125 750.968Z" fill="#FFFFFF" transform="matrix(1 0 0 1.00118 19.7229 19.7227)"/></g></g></g></g></g><g><g><g><path d="M652.125 444.448 652.125 353.49C651.946 350.149 650.048 347.139 647.111 345.537L564 305.832 564 153.634 423 69.0336 282 153.634 282 305.832 198.892 345.538C195.956 347.139 194.059 350.148 193.879 353.488L193.879 444.448 61.6919 523.76 61.6919 692.366 202.692 776.966 330.726 700.15 417.661 756.461C420.508 758.31 424.164 758.357 427.058 756.581L517.18 701.291 643.312 776.963 784.312 692.363 784.312 523.759ZM758.246 528.826 643.312 597.787 528.381 528.826C528.339 528.81 528.318 528.763 528.334 528.721 528.342 528.7 528.359 528.682 528.381 528.674L634.5 465.001 634.5 499.826C634.5 504.693 638.445 508.638 643.312 508.638 648.18 508.638 652.125 504.693 652.125 499.826L652.125 465.001 758.245 528.674C758.287 528.69 758.308 528.738 758.292 528.779 758.283 528.801 758.266 528.818 758.244 528.826ZM515.918 282.861C511.527 280.763 506.266 282.621 504.167 287.013 502.068 291.405 503.928 296.666 508.319 298.764L542.025 314.871 431.946 380.919C431.872 380.963 431.812 380.928 431.812 380.843L431.812 242.927 546.242 174.272C546.315 174.228 546.375 174.262 546.375 174.347L546.375 297.414ZM537.932 158.701 423 227.662 308.068 158.701C308.027 158.685 308.006 158.638 308.022 158.596 308.029 158.575 308.046 158.557 308.068 158.549L423 89.5879 537.932 158.549C537.973 158.565 537.994 158.612 537.978 158.654 537.971 158.675 537.954 158.693 537.932 158.701ZM299.758 174.269 414.188 242.924 414.188 380.84C414.188 380.928 414.128 380.96 414.054 380.916L303.975 314.871 337.681 298.767C342.072 296.668 343.932 291.407 341.833 287.015 339.734 282.624 334.473 280.765 330.082 282.864L299.625 297.411 299.625 174.345C299.625 174.259 299.685 174.223 299.758 174.269ZM202.688 508.638C207.555 508.638 211.5 504.693 211.5 499.826L211.5 465.001 317.618 528.674C317.661 528.69 317.681 528.737 317.665 528.779 317.657 528.8 317.64 528.818 317.618 528.826L202.688 597.787 87.7558 528.826C87.7139 528.81 87.6928 528.763 87.7088 528.721 87.717 528.7 87.7341 528.682 87.7558 528.674L193.875 465.001 193.875 499.826C193.875 504.693 197.82 508.638 202.688 508.638ZM79.4456 544.394 193.875 613.049 193.875 750.965C193.875 751.053 193.815 751.085 193.742 751.041L79.3125 682.384 79.3125 544.468C79.3125 544.384 79.3724 544.348 79.4456 544.394ZM211.5 750.968 211.5 613.052 325.929 544.397C326.003 544.353 326.062 544.387 326.062 544.472L326.062 676.138 304.415 662.117C300.413 659.346 294.924 660.344 292.153 664.346 289.382 668.348 290.381 673.837 294.382 676.608 294.531 676.71 294.681 676.808 294.835 676.901L314.246 689.475 211.633 751.044C211.56 751.089 211.5 751.053 211.5 750.968ZM422.574 738.65 343.688 687.551 343.688 523.759 211.5 444.451 211.5 359.049 284.897 323.982 423 406.838 561.099 323.982 634.5 359.049 634.5 444.451 502.312 523.759 502.312 689.724ZM553.888 668.428C551.344 664.278 545.919 662.976 541.77 665.518 541.769 665.519 541.768 665.519 541.767 665.52L519.938 678.909 519.938 544.47C519.938 544.382 519.997 544.35 520.071 544.394L634.5 613.049 634.5 750.965C634.5 751.053 634.44 751.085 634.367 751.041L534.115 690.89 550.983 680.542C555.128 677.998 556.428 672.575 553.888 668.428ZM652.125 750.968 652.125 613.052 766.554 544.397C766.628 544.353 766.688 544.387 766.688 544.472L766.688 682.388 652.258 751.044C652.185 751.089 652.125 751.053 652.125 750.968Z" fill="#FFFFFF" transform="matrix(1 0 0 1.00118 1874 736)"/></g></g></g></g></svg>