<svg width="1880" height="1420" xmlns="http://www.w3.org/2000/svg" xmlns:xlink="http://www.w3.org/1999/xlink" xml:space="preserve" overflow="hidden"><defs><filter id="fx0" x="-10%" y="-10%" width="120%" height="120%" filterUnits="userSpaceOnUse" primitiveUnits="userSpaceOnUse"><feComponentTransfer color-interpolation-filters="sRGB"><feFuncR type="discrete" tableValues="0 0"/><feFuncG type="discrete" tableValues="0 0"/><feFuncB type="discrete" tableValues="0 0"/><feFuncA type="linear" slope="0.4" intercept="0"/></feComponentTransfer><feGaussianBlur stdDeviation="6.11111 6.11111"/></filter><clipPath id="clip1"><rect x="1389" y="428" width="1880" height="1420"/></clipPath><clipPath id="clip2"><path d="M1401.5 440.5 1401.5 1815.5 3236.5 1815.5 3236.5 440.5ZM1389 428 3269 428 3269 1848 1389 1848Z" fill-rule="evenodd" clip-rule="evenodd"/></clipPath></defs><g clip-path="url(#clip1)" transform="translate(-1389 -428)"><g clip-path="url(#clip2)"><g filter="url(#fx0)" transform="translate(1388 427)"><g><rect x="23.2227" y="23.2226" width="1835" height="1375" stroke="#042433" stroke-width="7" stroke-miterlimit="8" fill="#1A3772"/></g></g></g><rect x="1401.5" y="440.5" width="1835" height="1375" stroke="#042433" stroke-width="6.875" stroke-miterlimit="8" fill="#1A3772"/><g><g><g><path d="M226.885 532.687 453.771 532.687 453.771 601.739 493.229 601.739 493.229 532.687 720.114 532.687 720.114 601.739 759.573 601.739 759.573 493.229 493.229 493.229 493.229 424.177 453.771 424.177 453.771 493.229 187.427 493.229 187.427 601.739 226.885 601.739 226.885 532.687Z" fill="#FFFFFF" transform="matrix(1 0 0 1 1845 654)"/><path d="M739.844 641.198C685.362 641.198 641.198 685.362 641.198 739.844 641.198 794.325 685.362 838.489 739.844 838.489 794.325 838.489 838.489 794.325 838.489 739.844 838.489 685.362 794.325 641.198 739.844 641.198ZM739.844 673.938C755.435 673.933 768.08 686.569 768.086 702.161 768.091 717.753 755.455 730.397 739.863 730.403 724.271 730.408 711.626 717.773 711.621 702.181 711.621 702.174 711.621 702.168 711.621 702.161 711.621 686.574 724.256 673.938 739.844 673.938ZM796.299 789.748 683.389 789.748 683.389 766.142C683.411 761.702 685.5 757.527 689.041 754.848 697.389 748.846 706.743 744.386 716.662 741.678 724.144 739.215 731.967 737.948 739.844 737.92 747.711 738.15 755.516 739.413 763.055 741.678 773.116 743.989 782.546 748.485 790.676 754.848 794.324 757.436 796.444 761.671 796.328 766.142Z" fill="#FFFFFF" transform="matrix(1 0 0 1 1845 654)"/><path d="M473.5 641.198C419.02 641.198 374.854 685.362 374.854 739.844 374.854 794.325 419.02 838.489 473.5 838.489 527.98 838.489 572.146 794.325 572.146 739.844 572.146 685.362 527.98 641.198 473.5 641.198ZM473.5 673.938C489.092 673.933 501.736 686.569 501.742 702.161 501.748 717.753 489.112 730.397 473.52 730.403 457.928 730.408 445.283 717.773 445.277 702.181 445.277 702.174 445.277 702.168 445.277 702.161 445.277 686.574 457.913 673.938 473.5 673.938ZM529.955 789.748 417.045 789.748 417.045 766.142C417.068 761.702 419.157 757.527 422.697 754.848 431.046 748.846 440.399 744.386 450.318 741.678 457.8 739.215 465.623 737.948 473.5 737.92 481.368 738.15 489.173 739.413 496.711 741.678 506.773 743.989 516.203 748.485 524.332 754.848 527.98 757.436 530.1 761.671 529.984 766.142Z" fill="#FFFFFF" transform="matrix(1 0 0 1 1845 654)"/><path d="M207.156 641.198C152.676 641.198 108.51 685.362 108.51 739.844 108.51 794.325 152.676 838.489 207.156 838.489 261.636 838.489 305.802 794.325 305.802 739.844 305.802 685.362 261.636 641.198 207.156 641.198ZM207.156 673.938C222.748 673.933 235.393 686.569 235.398 702.161 235.404 717.753 222.768 730.397 207.176 730.403 191.584 730.408 178.94 717.773 178.934 702.181 178.934 702.174 178.934 702.168 178.934 702.161 178.934 686.574 191.569 673.938 207.156 673.938ZM263.611 789.748 150.701 789.748 150.701 766.142C150.724 761.702 152.813 757.527 156.354 754.848 164.702 748.846 174.056 744.386 183.974 741.678 191.457 739.215 199.279 737.948 207.156 737.92 215.024 738.15 222.829 739.413 230.368 741.678 240.429 743.989 249.859 748.485 257.988 754.848 261.636 757.436 263.756 761.671 263.641 766.142Z" fill="#FFFFFF" transform="matrix(1 0 0 1 1845 654)"/><path d="M473.5 384.719C549.773 384.719 611.604 322.887 611.604 246.615 611.604 170.342 549.773 108.51 473.5 108.51 397.227 108.51 335.396 170.342 335.396 246.615 335.396 322.887 397.227 384.719 473.5 384.719ZM473.5 154.341C495.325 154.341 513.017 172.033 513.017 193.859 513.017 215.684 495.325 233.376 473.5 233.376 451.674 233.376 433.982 215.684 433.982 193.859 433.988 172.036 451.677 154.347 473.5 154.341ZM394.465 283.429C394.498 277.227 397.415 271.394 402.356 267.646 414.037 259.251 427.122 253.008 440.996 249.209 451.484 245.745 462.454 243.961 473.5 243.921 484.515 244.247 495.44 246.018 505.994 249.189 520.068 252.435 533.258 258.728 544.633 267.626 549.731 271.242 552.691 277.161 552.525 283.409L552.525 318.981 394.465 318.981Z" fill="#FFFFFF" transform="matrix(1 0 0 1 1845 654)"/></g></g></g></g></svg>