<svg width="1881" height="1420" xmlns="http://www.w3.org/2000/svg" xmlns:xlink="http://www.w3.org/1999/xlink" xml:space="preserve" overflow="hidden"><defs><filter id="fx0" x="-10%" y="-10%" width="120%" height="120%" filterUnits="userSpaceOnUse" primitiveUnits="userSpaceOnUse"><feComponentTransfer color-interpolation-filters="sRGB"><feFuncR type="discrete" tableValues="0 0"/><feFuncG type="discrete" tableValues="0 0"/><feFuncB type="discrete" tableValues="0 0"/><feFuncA type="linear" slope="0.4" intercept="0"/></feComponentTransfer><feGaussianBlur stdDeviation="6.11111 6.11111"/></filter><clipPath id="clip1"><rect x="1367" y="460" width="1881" height="1420"/></clipPath><clipPath id="clip2"><path d="M1379.5 472.5 1379.5 1847.5 3215.5 1847.5 3215.5 472.5ZM1367 460 3248 460 3248 1880 1367 1880Z" fill-rule="evenodd" clip-rule="evenodd"/></clipPath></defs><g clip-path="url(#clip1)" transform="translate(-1367 -460)"><g clip-path="url(#clip2)"><g filter="url(#fx0)" transform="translate(1366 459)"><g><rect x="23.2227" y="23.2229" width="1836" height="1375" stroke="#042433" stroke-width="7" stroke-miterlimit="8" fill="#1A3772"/></g></g></g><rect x="1379.5" y="472.5" width="1836" height="1375" stroke="#042433" stroke-width="6.875" stroke-miterlimit="8" fill="#1A3772"/><g><g><g><path d="M499.797 562.319 437.276 499.797 499.797 437.276 562.319 499.797C575.374 512.639 596.366 512.465 609.207 499.41 621.901 486.505 621.898 465.805 609.202 452.903L546.68 390.393 585.76 351.312 507.611 273.163C451.995 217.527 364.936 208.639 299.224 251.888L273.594 225.363C217.263 167.396 139.925 134.609 59.0955 134.426L22.1042 134.426 22.1042 200.739 59.0955 200.739C121.983 200.864 182.158 226.368 225.982 271.472L252.308 298.705C208.69 364.439 217.435 451.805 273.219 507.589L351.312 585.76 390.393 546.68 452.903 609.202C465.955 622.045 486.948 621.877 499.792 608.826 512.488 595.924 512.491 575.223 499.797 562.319Z" fill="#FFFFFF" transform="matrix(1.00094 0 0 1 1766 629)"/><path d="M1002.5 862.062C942.261 862.188 884.357 838.768 841.141 796.8L810.913 767.556C854.132 701.835 845.242 614.794 789.627 559.169L711.478 481.02 477.041 715.479 555.19 793.628C610.977 849.407 698.342 858.148 764.075 814.527L795.02 844.467C850.588 898.429 925.044 928.539 1002.5 928.375L1038.9 928.375 1038.9 862.062Z" fill="#FFFFFF" transform="matrix(1.00094 0 0 1 1766 629)"/></g></g></g></g></svg>