<svg width="96" height="96" xmlns="http://www.w3.org/2000/svg" xmlns:xlink="http://www.w3.org/1999/xlink">
 <g transform="translate(-592 -312)">
  <path d="M670.4 323 670.4 323C669.9 328.1 671.5 333.2 675 336.9L675 336.9C669.9 337.2 665.2 339.7 662.1 343.8L662.1 343.8C662.6 338.7 661 333.6 657.5 329.9L657.5 329.9C662.6 329.5 667.3 327 670.4 323Z" fill="#084F6A" /><path d="M639.5 325.8C639 332.3 641 338.3 645 342.4L645 342.4C639.3 342.6 633.6 345.6 629.5 350.6L629.5 350.6C630 344.2 628 338.1 624 334L624 334C629.7 333.8 635.4 330.8 639.5 325.8L639.5 325.8Z" fill="#084F6A" /><path d="M669.6 351.2 669.6 351.2C669.2 354.8 670.4 358.3 672.8 361L672.8 361C669.2 361.2 665.9 363 663.7 365.8L663.7 365.8C664.1 362.2 662.9 358.7 660.5 356L660.5 356C664.1 355.8 667.4 354 669.6 351.2Z" fill="#084F6A" /><path d="M604.655 391.891 640.505 356.041 646.162 361.698 610.312 397.548Z" fill="#084F6A" /><path d="M643.325 353.313 652.163 344.474 657.82 350.131 648.981 358.969Z" fill="#084F6A" />
 </g>
</svg>