<svg xmlns="http://www.w3.org/2000/svg" viewBox="0 0 128 128" width="128" height="128">
  <rect width="128" height="128" rx="12" ry="12" fill="#F3F4F6"/>
  <g transform="translate(18,28)" fill="#374151">
    <rect x="0" y="28" width="76" height="44" rx="3" />
    <rect x="6" y="8" width="12" height="20" rx="1" />
    <rect x="24" y="0" width="12" height="28" rx="1" />
    <rect x="42" y="6" width="12" height="22" rx="1" />
    <rect x="60" y="14" width="8" height="22" rx="1" />
    <rect x="4" y="36" width="12" height="14" fill="#F3F4F6" rx="1" />
    <rect x="22" y="36" width="12" height="14" fill="#F3F4F6" rx="1" />
    <rect x="40" y="36" width="12" height="14" fill="#F3F4F6" rx="1" />
    <rect x="58" y="36" width="12" height="14" fill="#F3F4F6" rx="1" />
    <rect x="70" y="-10" width="8" height="54" rx="2" />
    <path d="M68 4c6-4 10-4 14 0v6H68z" fill="#F3F4F6"/>
  </g>
</svg>
